<?xml version="1.0" encoding="utf-8"?>
<!-- Generator: Adobe Illustrator 21.0.2, SVG Export Plug-In . SVG Version: 6.00 Build 0)  -->
<svg version="1.1" id="Layer_1" xmlns="http://www.w3.org/2000/svg" xmlns:xlink="http://www.w3.org/1999/xlink" x="0px" y="0px"
	 viewBox="0 0 37 37" style="enable-background:new 0 0 37 37;" xml:space="preserve">
<style type="text/css">
	.st0{opacity:0.7634;clip-path:url(#SVGID_2_);enable-background:new    ;}
	.st1{clip-path:url(#SVGID_4_);}
	.st2{clip-path:url(#SVGID_6_);}
	.st3{clip-path:url(#SVGID_8_);fill:#222222;}
	.st4{clip-path:url(#SVGID_10_);fill:none;stroke:#10CBD2;stroke-miterlimit:10;}
	.st5{clip-path:url(#SVGID_12_);}
	.st6{clip-path:url(#SVGID_14_);fill:#222222;}
	.st7{clip-path:url(#SVGID_16_);fill:none;stroke:#10CBD2;stroke-miterlimit:10;}
	.st8{clip-path:url(#SVGID_18_);}
	.st9{clip-path:url(#SVGID_20_);fill:#222222;}
	.st10{clip-path:url(#SVGID_22_);fill:none;stroke:#10CBD2;stroke-miterlimit:10;}
	.st11{opacity:0.7634;clip-path:url(#SVGID_24_);enable-background:new    ;}
	.st12{clip-path:url(#SVGID_26_);}
	.st13{clip-path:url(#SVGID_28_);}
	.st14{clip-path:url(#SVGID_30_);fill:#222222;}
	.st15{clip-path:url(#SVGID_32_);fill:none;stroke:#10CBD2;stroke-miterlimit:10;}
	.st16{clip-path:url(#SVGID_34_);}
	.st17{clip-path:url(#SVGID_36_);fill:#222222;}
	.st18{clip-path:url(#SVGID_38_);fill:none;stroke:#10CBD2;stroke-miterlimit:10;}
	.st19{clip-path:url(#SVGID_40_);}
	.st20{clip-path:url(#SVGID_42_);fill:#222222;}
	.st21{clip-path:url(#SVGID_44_);fill:none;stroke:#10CBD2;stroke-miterlimit:10;}
	.st22{opacity:0.7634;enable-background:new    ;}
	.st23{clip-path:url(#SVGID_46_);}
	.st24{clip-path:url(#SVGID_48_);}
	.st25{clip-path:url(#SVGID_50_);fill:#222222;}
	.st26{clip-path:url(#SVGID_52_);fill:none;stroke:#10CBD2;stroke-miterlimit:10;}
	.st27{clip-path:url(#SVGID_54_);}
	.st28{clip-path:url(#SVGID_56_);fill:#222222;}
	.st29{clip-path:url(#SVGID_58_);fill:none;stroke:#10CBD2;stroke-miterlimit:10;}
	.st30{clip-path:url(#SVGID_60_);}
	.st31{clip-path:url(#SVGID_62_);fill:#222222;}
	.st32{clip-path:url(#SVGID_64_);fill:none;stroke:#10CBD2;stroke-miterlimit:10;}
</style>
<g>
	<defs>
		<rect id="SVGID_1_" x="-800" y="-1224" width="1440" height="2419"/>
	</defs>
	<clipPath id="SVGID_2_">
		<use xlink:href="#SVGID_1_"  style="overflow:visible;"/>
	</clipPath>
	<g class="st0">
		<g>
			<defs>
				<rect id="SVGID_3_" x="492" y="-1198" width="37" height="37"/>
			</defs>
			<clipPath id="SVGID_4_">
				<use xlink:href="#SVGID_3_"  style="overflow:visible;"/>
			</clipPath>
			<g class="st1">
				<defs>
					<path id="SVGID_5_" d="M510.5-1162c-4.7,0-9.1-1.8-12.4-5.1c-3.3-3.3-5.1-7.7-5.1-12.4s1.8-9.1,5.1-12.4
						c3.3-3.3,7.7-5.1,12.4-5.1c4.7,0,9.1,1.8,12.4,5.1c3.3,3.3,5.1,7.7,5.1,12.4s-1.8,9.1-5.1,12.4
						C519.6-1163.8,515.2-1162,510.5-1162 M510.5-1196c-9.1,0-16.5,7.4-16.5,16.5s7.4,16.5,16.5,16.5c9.1,0,16.5-7.4,16.5-16.5
						S519.6-1196,510.5-1196"/>
				</defs>
				<clipPath id="SVGID_6_">
					<use xlink:href="#SVGID_5_"  style="overflow:visible;"/>
				</clipPath>
				<g class="st2">
					<defs>
						<rect id="SVGID_7_" x="492" y="-1198" width="37" height="37"/>
					</defs>
					<clipPath id="SVGID_8_">
						<use xlink:href="#SVGID_7_"  style="overflow:visible;"/>
					</clipPath>
					<rect x="488" y="-1202" class="st3" width="45" height="45"/>
				</g>
			</g>
			<g class="st1">
				<defs>
					<rect id="SVGID_9_" x="492" y="-1198" width="37" height="37"/>
				</defs>
				<clipPath id="SVGID_10_">
					<use xlink:href="#SVGID_9_"  style="overflow:visible;"/>
				</clipPath>
				<path class="st4" d="M510.5-1162c-4.7,0-9.1-1.8-12.4-5.1c-3.3-3.3-5.1-7.7-5.1-12.4s1.8-9.1,5.1-12.4c3.3-3.3,7.7-5.1,12.4-5.1
					c4.7,0,9.1,1.8,12.4,5.1c3.3,3.3,5.1,7.7,5.1,12.4s-1.8,9.1-5.1,12.4C519.6-1163.8,515.2-1162,510.5-1162 M510.5-1196
					c-9.1,0-16.5,7.4-16.5,16.5s7.4,16.5,16.5,16.5c9.1,0,16.5-7.4,16.5-16.5S519.6-1196,510.5-1196"/>
			</g>
			<g class="st1">
				<defs>
					<path id="SVGID_11_" d="M510.5-1174.3c-3.5,0-6.4-2.9-6.4-6.4s2.9-6.4,6.4-6.4c3.5,0,6.4,2.9,6.4,6.4S514-1174.3,510.5-1174.3
						 M510.5-1186c-3,0-5.4,2.4-5.4,5.4c0,3,2.4,5.4,5.4,5.4s5.4-2.4,5.4-5.4C515.9-1183.6,513.5-1186,510.5-1186"/>
				</defs>
				<clipPath id="SVGID_12_">
					<use xlink:href="#SVGID_11_"  style="overflow:visible;"/>
				</clipPath>
				<g class="st5">
					<defs>
						<rect id="SVGID_13_" x="492" y="-1198" width="37" height="37"/>
					</defs>
					<clipPath id="SVGID_14_">
						<use xlink:href="#SVGID_13_"  style="overflow:visible;"/>
					</clipPath>
					<rect x="499.1" y="-1192.1" class="st6" width="22.8" height="22.8"/>
				</g>
			</g>
			<g class="st1">
				<defs>
					<rect id="SVGID_15_" x="492" y="-1198" width="37" height="37"/>
				</defs>
				<clipPath id="SVGID_16_">
					<use xlink:href="#SVGID_15_"  style="overflow:visible;"/>
				</clipPath>
				<path class="st7" d="M510.5-1174.3c-3.5,0-6.4-2.9-6.4-6.4s2.9-6.4,6.4-6.4c3.5,0,6.4,2.9,6.4,6.4S514-1174.3,510.5-1174.3
					 M510.5-1186c-3,0-5.4,2.4-5.4,5.4c0,3,2.4,5.4,5.4,5.4s5.4-2.4,5.4-5.4C515.9-1183.6,513.5-1186,510.5-1186"/>
			</g>
			<g class="st1">
				<defs>
					<path id="SVGID_17_" d="M520.1-1165.4c-0.3,0-0.5-0.2-0.5-0.5c0-4.6-4.1-8.4-9.1-8.4c-5,0-9.1,3.8-9.1,8.4
						c0,0.3-0.2,0.5-0.5,0.5c-0.3,0-0.5-0.2-0.5-0.5c0-5.2,4.6-9.5,10.2-9.5c5.6,0,10.2,4.2,10.2,9.5
						C520.7-1165.6,520.4-1165.4,520.1-1165.4"/>
				</defs>
				<clipPath id="SVGID_18_">
					<use xlink:href="#SVGID_17_"  style="overflow:visible;"/>
				</clipPath>
				<g class="st8">
					<defs>
						<rect id="SVGID_19_" x="492" y="-1198" width="37" height="37"/>
					</defs>
					<clipPath id="SVGID_20_">
						<use xlink:href="#SVGID_19_"  style="overflow:visible;"/>
					</clipPath>
					<rect x="495.3" y="-1180.3" class="st9" width="30.3" height="20"/>
				</g>
			</g>
			<g class="st1">
				<defs>
					<rect id="SVGID_21_" x="492" y="-1198" width="37" height="37"/>
				</defs>
				<clipPath id="SVGID_22_">
					<use xlink:href="#SVGID_21_"  style="overflow:visible;"/>
				</clipPath>
				<path class="st10" d="M520.1-1165.4c-0.3,0-0.5-0.2-0.5-0.5c0-4.6-4.1-8.4-9.1-8.4c-5,0-9.1,3.8-9.1,8.4c0,0.3-0.2,0.5-0.5,0.5
					c-0.3,0-0.5-0.2-0.5-0.5c0-5.2,4.6-9.5,10.2-9.5c5.6,0,10.2,4.2,10.2,9.5C520.7-1165.6,520.4-1165.4,520.1-1165.4"/>
			</g>
		</g>
	</g>
</g>
<g>
	<defs>
		<rect id="SVGID_23_" x="-702" y="-1191" width="1440" height="2419"/>
	</defs>
	<clipPath id="SVGID_24_">
		<use xlink:href="#SVGID_23_"  style="overflow:visible;"/>
	</clipPath>
	<g class="st11">
		<g>
			<defs>
				<rect id="SVGID_25_" x="590" y="-1165" width="37" height="37"/>
			</defs>
			<clipPath id="SVGID_26_">
				<use xlink:href="#SVGID_25_"  style="overflow:visible;"/>
			</clipPath>
			<g class="st12">
				<defs>
					<path id="SVGID_27_" d="M608.5-1129c-4.7,0-9.1-1.8-12.4-5.1c-3.3-3.3-5.1-7.7-5.1-12.4s1.8-9.1,5.1-12.4
						c3.3-3.3,7.7-5.1,12.4-5.1s9.1,1.8,12.4,5.1c3.3,3.3,5.1,7.7,5.1,12.4s-1.8,9.1-5.1,12.4C617.6-1130.8,613.2-1129,608.5-1129
						 M608.5-1163c-9.1,0-16.5,7.4-16.5,16.5s7.4,16.5,16.5,16.5c9.1,0,16.5-7.4,16.5-16.5S617.6-1163,608.5-1163"/>
				</defs>
				<clipPath id="SVGID_28_">
					<use xlink:href="#SVGID_27_"  style="overflow:visible;"/>
				</clipPath>
				<g class="st13">
					<defs>
						<rect id="SVGID_29_" x="590" y="-1165" width="37" height="37"/>
					</defs>
					<clipPath id="SVGID_30_">
						<use xlink:href="#SVGID_29_"  style="overflow:visible;"/>
					</clipPath>
					<rect x="586" y="-1169" class="st14" width="45" height="45"/>
				</g>
			</g>
			<g class="st12">
				<defs>
					<rect id="SVGID_31_" x="590" y="-1165" width="37" height="37"/>
				</defs>
				<clipPath id="SVGID_32_">
					<use xlink:href="#SVGID_31_"  style="overflow:visible;"/>
				</clipPath>
				<path class="st15" d="M608.5-1129c-4.7,0-9.1-1.8-12.4-5.1c-3.3-3.3-5.1-7.7-5.1-12.4s1.8-9.1,5.1-12.4
					c3.3-3.3,7.7-5.1,12.4-5.1s9.1,1.8,12.4,5.1c3.3,3.3,5.1,7.7,5.1,12.4s-1.8,9.1-5.1,12.4C617.6-1130.8,613.2-1129,608.5-1129
					 M608.5-1163c-9.1,0-16.5,7.4-16.5,16.5s7.4,16.5,16.5,16.5c9.1,0,16.5-7.4,16.5-16.5S617.6-1163,608.5-1163"/>
			</g>
			<g class="st12">
				<defs>
					<path id="SVGID_33_" d="M608.5-1141.3c-3.5,0-6.4-2.9-6.4-6.4s2.9-6.4,6.4-6.4s6.4,2.9,6.4,6.4S612-1141.3,608.5-1141.3
						 M608.5-1153c-3,0-5.4,2.4-5.4,5.4c0,3,2.4,5.4,5.4,5.4s5.4-2.4,5.4-5.4C613.9-1150.6,611.5-1153,608.5-1153"/>
				</defs>
				<clipPath id="SVGID_34_">
					<use xlink:href="#SVGID_33_"  style="overflow:visible;"/>
				</clipPath>
				<g class="st16">
					<defs>
						<rect id="SVGID_35_" x="590" y="-1165" width="37" height="37"/>
					</defs>
					<clipPath id="SVGID_36_">
						<use xlink:href="#SVGID_35_"  style="overflow:visible;"/>
					</clipPath>
					<rect x="597.1" y="-1159.1" class="st17" width="22.8" height="22.8"/>
				</g>
			</g>
			<g class="st12">
				<defs>
					<rect id="SVGID_37_" x="590" y="-1165" width="37" height="37"/>
				</defs>
				<clipPath id="SVGID_38_">
					<use xlink:href="#SVGID_37_"  style="overflow:visible;"/>
				</clipPath>
				<path class="st18" d="M608.5-1141.3c-3.5,0-6.4-2.9-6.4-6.4s2.9-6.4,6.4-6.4c3.5,0,6.4,2.9,6.4,6.4S612-1141.3,608.5-1141.3
					 M608.5-1153c-3,0-5.4,2.4-5.4,5.4c0,3,2.4,5.4,5.4,5.4s5.4-2.4,5.4-5.4C613.9-1150.6,611.5-1153,608.5-1153"/>
			</g>
			<g class="st12">
				<defs>
					<path id="SVGID_39_" d="M618.1-1132.4c-0.3,0-0.5-0.2-0.5-0.5c0-4.6-4.1-8.4-9.1-8.4c-5,0-9.1,3.8-9.1,8.4
						c0,0.3-0.2,0.5-0.5,0.5c-0.3,0-0.5-0.2-0.5-0.5c0-5.2,4.6-9.5,10.2-9.5s10.2,4.2,10.2,9.5
						C618.7-1132.6,618.4-1132.4,618.1-1132.4"/>
				</defs>
				<clipPath id="SVGID_40_">
					<use xlink:href="#SVGID_39_"  style="overflow:visible;"/>
				</clipPath>
				<g class="st19">
					<defs>
						<rect id="SVGID_41_" x="590" y="-1165" width="37" height="37"/>
					</defs>
					<clipPath id="SVGID_42_">
						<use xlink:href="#SVGID_41_"  style="overflow:visible;"/>
					</clipPath>
					<rect x="593.3" y="-1147.3" class="st20" width="30.3" height="20"/>
				</g>
			</g>
			<g class="st12">
				<defs>
					<rect id="SVGID_43_" x="590" y="-1165" width="37" height="37"/>
				</defs>
				<clipPath id="SVGID_44_">
					<use xlink:href="#SVGID_43_"  style="overflow:visible;"/>
				</clipPath>
				<path class="st21" d="M618.1-1132.4c-0.3,0-0.5-0.2-0.5-0.5c0-4.6-4.1-8.4-9.1-8.4c-5,0-9.1,3.8-9.1,8.4c0,0.3-0.2,0.5-0.5,0.5
					c-0.3,0-0.5-0.2-0.5-0.5c0-5.2,4.6-9.5,10.2-9.5s10.2,4.2,10.2,9.5C618.7-1132.6,618.4-1132.4,618.1-1132.4"/>
			</g>
		</g>
	</g>
</g>
<g class="st22">
	<g>
		<defs>
			<rect id="SVGID_45_" width="37" height="37"/>
		</defs>
		<clipPath id="SVGID_46_">
			<use xlink:href="#SVGID_45_"  style="overflow:visible;"/>
		</clipPath>
		<g class="st23">
			<defs>
				<path id="SVGID_47_" d="M18.5,36c-4.7,0-9.1-1.8-12.4-5.1C2.8,27.6,1,23.2,1,18.5S2.8,9.4,6.1,6.1C9.4,2.8,13.8,1,18.5,1
					s9.1,1.8,12.4,5.1c3.3,3.3,5.1,7.7,5.1,12.4s-1.8,9.1-5.1,12.4C27.6,34.2,23.2,36,18.5,36 M18.5,2C9.4,2,2,9.4,2,18.5
					S9.4,35,18.5,35S35,27.6,35,18.5S27.6,2,18.5,2"/>
			</defs>
			<clipPath id="SVGID_48_">
				<use xlink:href="#SVGID_47_"  style="overflow:visible;"/>
			</clipPath>
			<g class="st24">
				<defs>
					<rect id="SVGID_49_" width="37" height="37"/>
				</defs>
				<clipPath id="SVGID_50_">
					<use xlink:href="#SVGID_49_"  style="overflow:visible;"/>
				</clipPath>
				<rect x="-4" y="-4" class="st25" width="45" height="45"/>
			</g>
		</g>
		<g class="st23">
			<defs>
				<rect id="SVGID_51_" width="37" height="37"/>
			</defs>
			<clipPath id="SVGID_52_">
				<use xlink:href="#SVGID_51_"  style="overflow:visible;"/>
			</clipPath>
			<path class="st26" d="M18.5,36c-4.7,0-9.1-1.8-12.4-5.1C2.8,27.6,1,23.2,1,18.5S2.8,9.4,6.1,6.1C9.4,2.8,13.8,1,18.5,1
				s9.1,1.8,12.4,5.1c3.3,3.3,5.1,7.7,5.1,12.4s-1.8,9.1-5.1,12.4C27.6,34.2,23.2,36,18.5,36 M18.5,2C9.4,2,2,9.4,2,18.5
				S9.4,35,18.5,35S35,27.6,35,18.5S27.6,2,18.5,2"/>
		</g>
		<g class="st23">
			<defs>
				<path id="SVGID_53_" d="M18.5,23.7c-3.5,0-6.4-2.9-6.4-6.4s2.9-6.4,6.4-6.4s6.4,2.9,6.4,6.4S22,23.7,18.5,23.7 M18.5,12
					c-3,0-5.4,2.4-5.4,5.4c0,3,2.4,5.4,5.4,5.4s5.4-2.4,5.4-5.4C23.9,14.4,21.5,12,18.5,12"/>
			</defs>
			<clipPath id="SVGID_54_">
				<use xlink:href="#SVGID_53_"  style="overflow:visible;"/>
			</clipPath>
			<g class="st27">
				<defs>
					<rect id="SVGID_55_" width="37" height="37"/>
				</defs>
				<clipPath id="SVGID_56_">
					<use xlink:href="#SVGID_55_"  style="overflow:visible;"/>
				</clipPath>
				<rect x="7.1" y="5.9" class="st28" width="22.8" height="22.8"/>
			</g>
		</g>
		<g class="st23">
			<defs>
				<rect id="SVGID_57_" width="37" height="37"/>
			</defs>
			<clipPath id="SVGID_58_">
				<use xlink:href="#SVGID_57_"  style="overflow:visible;"/>
			</clipPath>
			<path class="st29" d="M18.5,23.7c-3.5,0-6.4-2.9-6.4-6.4s2.9-6.4,6.4-6.4s6.4,2.9,6.4,6.4S22,23.7,18.5,23.7 M18.5,12
				c-3,0-5.4,2.4-5.4,5.4c0,3,2.4,5.4,5.4,5.4s5.4-2.4,5.4-5.4C23.9,14.4,21.5,12,18.5,12"/>
		</g>
		<g class="st23">
			<defs>
				<path id="SVGID_59_" d="M28.1,32.6c-0.3,0-0.5-0.2-0.5-0.5c0-4.6-4.1-8.4-9.1-8.4c-5,0-9.1,3.8-9.1,8.4c0,0.3-0.2,0.5-0.5,0.5
					c-0.3,0-0.5-0.2-0.5-0.5c0-5.2,4.6-9.5,10.2-9.5c5.6,0,10.2,4.2,10.2,9.5C28.7,32.4,28.4,32.6,28.1,32.6"/>
			</defs>
			<clipPath id="SVGID_60_">
				<use xlink:href="#SVGID_59_"  style="overflow:visible;"/>
			</clipPath>
			<g class="st30">
				<defs>
					<rect id="SVGID_61_" width="37" height="37"/>
				</defs>
				<clipPath id="SVGID_62_">
					<use xlink:href="#SVGID_61_"  style="overflow:visible;"/>
				</clipPath>
				<rect x="3.3" y="17.7" class="st31" width="30.3" height="20"/>
			</g>
		</g>
		<g class="st23">
			<defs>
				<rect id="SVGID_63_" width="37" height="37"/>
			</defs>
			<clipPath id="SVGID_64_">
				<use xlink:href="#SVGID_63_"  style="overflow:visible;"/>
			</clipPath>
			<path class="st32" d="M28.1,32.6c-0.3,0-0.5-0.2-0.5-0.5c0-4.6-4.1-8.4-9.1-8.4c-5,0-9.1,3.8-9.1,8.4c0,0.3-0.2,0.5-0.5,0.5
				c-0.3,0-0.5-0.2-0.5-0.5c0-5.2,4.6-9.5,10.2-9.5c5.6,0,10.2,4.2,10.2,9.5C28.7,32.4,28.4,32.6,28.1,32.6"/>
		</g>
	</g>
</g>
</svg>
