<?xml version="1.0" encoding="utf-8"?>
<!-- Generator: Adobe Illustrator 21.0.2, SVG Export Plug-In . SVG Version: 6.00 Build 0)  -->
<svg version="1.1" id="Layer_1" xmlns="http://www.w3.org/2000/svg" xmlns:xlink="http://www.w3.org/1999/xlink" x="0px" y="0px"
	 viewBox="0 0 13.9 13.9" style="enable-background:new 0 0 13.9 13.9;" xml:space="preserve">
<style type="text/css">
	.st0{clip-path:url(#SVGID_2_);}
	.st1{clip-path:url(#SVGID_4_);fill:#4A4A4A;}
	.st2{clip-path:url(#SVGID_6_);}
	.st3{clip-path:url(#SVGID_8_);fill:#4A4A4A;}
	.st4{clip-path:url(#SVGID_10_);}
	.st5{clip-path:url(#SVGID_12_);fill:#4A4A4A;}
	.st6{clip-path:url(#SVGID_14_);}
	.st7{clip-path:url(#SVGID_16_);fill:#4A4A4A;}
	.st8{clip-path:url(#SVGID_18_);}
	.st9{clip-path:url(#SVGID_20_);fill:#4A4A4A;}
	.st10{clip-path:url(#SVGID_22_);}
	.st11{clip-path:url(#SVGID_24_);fill:#4A4A4A;}
	.st12{clip-path:url(#SVGID_26_);fill:#4A4A4A;}
	.st13{clip-path:url(#SVGID_28_);fill:#4A4A4A;}
</style>
<g>
	<defs>
		<path id="SVGID_1_" d="M592.3-1066.4l-12.1-12c-0.4-0.4-0.4-0.9,0-1.3c0.4-0.4,0.9-0.4,1.3,0l12.1,12c0.4,0.4,0.4,0.9,0,1.3
			c-0.2,0.2-0.4,0.3-0.7,0.3C592.8-1066.1,592.5-1066.2,592.3-1066.4z"/>
	</defs>
	<clipPath id="SVGID_2_">
		<use xlink:href="#SVGID_1_"  style="overflow:visible;"/>
	</clipPath>
	<g class="st0">
		<defs>
			<rect id="SVGID_3_" x="-712.5" y="-1202.6" width="1440" height="2419"/>
		</defs>
		<clipPath id="SVGID_4_">
			<use xlink:href="#SVGID_3_"  style="overflow:visible;"/>
		</clipPath>
		<rect x="575" y="-1085" class="st1" width="23.9" height="23.9"/>
	</g>
</g>
<g>
	<defs>
		<path id="SVGID_5_" d="M580.9-1066.1c-0.2,0-0.5-0.1-0.7-0.3c-0.4-0.4-0.4-0.9,0-1.3l12.1-12c0.4-0.4,0.9-0.4,1.3,0s0.4,0.9,0,1.3
			l-12.1,12C581.4-1066.2,581.2-1066.1,580.9-1066.1"/>
	</defs>
	<clipPath id="SVGID_6_">
		<use xlink:href="#SVGID_5_"  style="overflow:visible;"/>
	</clipPath>
	<g class="st2">
		<defs>
			<rect id="SVGID_7_" x="-712.5" y="-1202.6" width="1440" height="2419"/>
		</defs>
		<clipPath id="SVGID_8_">
			<use xlink:href="#SVGID_7_"  style="overflow:visible;"/>
		</clipPath>
		<rect x="575" y="-1085" class="st3" width="23.9" height="23.9"/>
	</g>
</g>
<g>
	<defs>
		<path id="SVGID_9_" d="M592.3-1066.4l-12.1-12c-0.4-0.4-0.4-0.9,0-1.3c0.4-0.4,0.9-0.4,1.3,0l12.1,12c0.4,0.4,0.4,0.9,0,1.3
			c-0.2,0.2-0.4,0.3-0.7,0.3C592.8-1066.1,592.5-1066.2,592.3-1066.4z"/>
	</defs>
	<clipPath id="SVGID_10_">
		<use xlink:href="#SVGID_9_"  style="overflow:visible;"/>
	</clipPath>
	<g class="st4">
		<defs>
			<rect id="SVGID_11_" x="-712.5" y="-1202.6" width="1440" height="2419"/>
		</defs>
		<clipPath id="SVGID_12_">
			<use xlink:href="#SVGID_11_"  style="overflow:visible;"/>
		</clipPath>
		<rect x="575" y="-1085" class="st5" width="23.9" height="23.9"/>
	</g>
</g>
<g>
	<defs>
		<path id="SVGID_13_" d="M580.9-1066.1c-0.2,0-0.5-0.1-0.7-0.3c-0.4-0.4-0.4-0.9,0-1.3l12.1-12c0.4-0.4,0.9-0.4,1.3,0
			s0.4,0.9,0,1.3l-12.1,12C581.4-1066.2,581.2-1066.1,580.9-1066.1"/>
	</defs>
	<clipPath id="SVGID_14_">
		<use xlink:href="#SVGID_13_"  style="overflow:visible;"/>
	</clipPath>
	<g class="st6">
		<defs>
			<rect id="SVGID_15_" x="-712.5" y="-1202.6" width="1440" height="2419"/>
		</defs>
		<clipPath id="SVGID_16_">
			<use xlink:href="#SVGID_15_"  style="overflow:visible;"/>
		</clipPath>
		<rect x="575" y="-1085" class="st7" width="23.9" height="23.9"/>
	</g>
</g>
<g>
	<defs>
		<path id="SVGID_17_" d="M592.3-1066.4l-12.1-12c-0.4-0.4-0.4-0.9,0-1.3c0.4-0.4,0.9-0.4,1.3,0l12.1,12c0.4,0.4,0.4,0.9,0,1.3
			c-0.2,0.2-0.4,0.3-0.7,0.3C592.8-1066.1,592.5-1066.2,592.3-1066.4z"/>
	</defs>
	<clipPath id="SVGID_18_">
		<use xlink:href="#SVGID_17_"  style="overflow:visible;"/>
	</clipPath>
	<g class="st8">
		<defs>
			<rect id="SVGID_19_" x="-712.5" y="-1202.6" width="1440" height="2419"/>
		</defs>
		<clipPath id="SVGID_20_">
			<use xlink:href="#SVGID_19_"  style="overflow:visible;"/>
		</clipPath>
		<rect x="575" y="-1085" class="st9" width="23.9" height="23.9"/>
	</g>
</g>
<g>
	<defs>
		<path id="SVGID_21_" d="M580.9-1066.1c-0.2,0-0.5-0.1-0.7-0.3c-0.4-0.4-0.4-0.9,0-1.3l12.1-12c0.4-0.4,0.9-0.4,1.3,0
			s0.4,0.9,0,1.3l-12.1,12C581.4-1066.2,581.2-1066.1,580.9-1066.1"/>
	</defs>
	<clipPath id="SVGID_22_">
		<use xlink:href="#SVGID_21_"  style="overflow:visible;"/>
	</clipPath>
	<g class="st10">
		<defs>
			<rect id="SVGID_23_" x="-712.5" y="-1202.6" width="1440" height="2419"/>
		</defs>
		<clipPath id="SVGID_24_">
			<use xlink:href="#SVGID_23_"  style="overflow:visible;"/>
		</clipPath>
		<rect x="575" y="-1085" class="st11" width="23.9" height="23.9"/>
	</g>
</g>
<g>
	<defs>
		<path id="SVGID_25_" d="M12.3,13.6L0.3,1.6c-0.4-0.4-0.4-0.9,0-1.3c0.4-0.4,0.9-0.4,1.3,0l12.1,12c0.4,0.4,0.4,0.9,0,1.3
			c-0.2,0.2-0.4,0.3-0.7,0.3C12.8,13.9,12.5,13.8,12.3,13.6z"/>
	</defs>
	<clipPath id="SVGID_26_">
		<use xlink:href="#SVGID_25_"  style="overflow:visible;"/>
	</clipPath>
	<rect x="-5" y="-5" class="st12" width="23.9" height="23.9"/>
</g>
<g>
	<defs>
		<path id="SVGID_27_" d="M0.9,13.9c-0.2,0-0.5-0.1-0.7-0.3c-0.4-0.4-0.4-0.9,0-1.3l12.1-12c0.4-0.4,0.9-0.4,1.3,0
			c0.4,0.4,0.4,0.9,0,1.3l-12.1,12C1.4,13.8,1.2,13.9,0.9,13.9"/>
	</defs>
	<clipPath id="SVGID_28_">
		<use xlink:href="#SVGID_27_"  style="overflow:visible;"/>
	</clipPath>
	<rect x="-5" y="-5" class="st13" width="23.9" height="23.9"/>
</g>
</svg>
