<?xml version="1.0" encoding="utf-8"?>
<!-- Generator: Adobe Illustrator 21.0.2, SVG Export Plug-In . SVG Version: 6.00 Build 0)  -->
<svg version="1.1" id="Layer_1" xmlns="http://www.w3.org/2000/svg" xmlns:xlink="http://www.w3.org/1999/xlink" x="0px" y="0px"
	 viewBox="0 0 12 12" style="enable-background:new 0 0 12 12;" xml:space="preserve">
<style type="text/css">
	.st0{fill:#4A4A4A;}
</style>
<g>
	<path class="st0" d="M9.6,8H2.4C2.1,8,1.8,7.8,1.8,7.4v0c0-0.3,0.3-0.6,0.6-0.6h7.1c0.3,0,0.6,0.3,0.6,0.6v0C10.2,7.8,9.9,8,9.6,8z
		"/>
	<path class="st0" d="M9.6,5.2H2.4c-0.3,0-0.6-0.3-0.6-0.6v0C1.8,4.2,2.1,4,2.4,4h7.1c0.3,0,0.6,0.3,0.6,0.6v0
		C10.2,4.9,9.9,5.2,9.6,5.2z"/>
</g>
</svg>
